# xmcd CD database file
#
# Track frame offsets:
#	150
#	33156
#	69344
#	101571
#	132696
#	162789
#	177025
#	201751
#	226290
#	252199
#
# Disc length: 3772 seconds
#
# Revision: 0
# Processed by: cddbd v1.5.2PL0 Copyright (c) Steve Scherf et al.
# Submitted via: CDex 1.60beta1
#
DISCID=7e0eba0a
DTITLE=Ed Corey Trio - Model Citizen
DYEAR=2006
DGENRE=Jazz
TTITLE0=Isreal
TTITLE1=Modal Citizen
TTITLE2=Nathantoon
TTITLE3=Trinity River
TTITLE4=Swedish Pastry
TTITLE5=Silent One
TTITLE6=Gone Fishin'
TTITLE7=Recount
TTITLE8=Radiation
TTITLE9=Maria's Song
EXTD=YEAR: 2006
EXTT0=
EXTT1=
EXTT2=
EXTT3=
EXTT4=
EXTT5=
EXTT6=
EXTT7=
EXTT8=
EXTT9=
PLAYORDER=
